<svg width="67" height="67" viewBox="0 0 67 67" fill="none" xmlns="http://www.w3.org/2000/svg">
<path d="M24.3084 62.645C23.88 62.4642 23.5239 62.1458 23.2964 61.7401C23.069 61.3345 22.983 60.8646 23.0522 60.4047L26.8628 35.5938H16.75C16.4294 35.6024 16.1111 35.5372 15.8197 35.4034C15.5282 35.2695 15.2714 35.0704 15.0691 34.8216C14.8668 34.5727 14.7243 34.2807 14.6528 33.9681C14.5812 33.6554 14.5824 33.3306 14.6562 33.0185L20.9375 5.7997C21.048 5.33127 21.3166 4.91522 21.6979 4.62158C22.0793 4.32794 22.5501 4.17465 23.0312 4.18752H43.9687C44.2815 4.18645 44.5906 4.25549 44.8732 4.38955C45.1558 4.52361 45.4048 4.71928 45.6019 4.9622C45.8017 5.20787 45.9432 5.49566 46.0158 5.80393C46.0883 6.11219 46.09 6.43289 46.0206 6.74189L42.3984 23.0313H52.3438C52.7362 23.0305 53.1209 23.14 53.4541 23.3473C53.7873 23.5546 54.0555 23.8514 54.2281 24.2038C54.3782 24.542 54.4359 24.9139 54.3954 25.2817C54.355 25.6495 54.2178 26 53.9978 26.2975L26.7791 61.8913C26.5951 62.164 26.3495 62.3895 26.0621 62.5495C25.7747 62.7096 25.4537 62.7997 25.125 62.8125C24.8448 62.8073 24.568 62.7505 24.3084 62.645ZM37.1641 27.2188L41.3516 8.37502H24.7062L19.3881 31.4063H31.7622L28.4331 52.93L48.1562 27.2188H37.1641Z" fill="#00BB78"/>
</svg>
