<svg width="94" height="94" viewBox="0 0 94 94" fill="none" xmlns="http://www.w3.org/2000/svg">
<g filter="url(#filter0_d_7_27)">
<rect width="94" height="94" fill="white"/>
<rect x="5" y="5" width="84" height="84" stroke="white" stroke-width="10"/>
<path d="M74.3804 30.8568L36.6929 18.2943C36.3718 18.1874 36.0296 18.16 35.6956 18.2143C35.3615 18.2686 35.0457 18.4031 34.775 18.6062L21.375 28.6562V18.1875H17.1875V76.8125H21.375V37.0312L34.775 47.0812C35.0457 47.2844 35.3615 47.4188 35.6956 47.4732C36.0296 47.5275 36.3718 47.5001 36.6929 47.3932L74.3804 34.8307C74.797 34.6916 75.1593 34.4249 75.416 34.0685C75.6727 33.7121 75.8109 33.284 75.8109 32.8448C75.8109 32.4055 75.6727 31.9774 75.416 31.621C75.1593 31.2646 74.797 30.998 74.3804 30.8589V30.8568ZM33.9375 41.2187L22.7715 32.8437L33.9375 24.4687V41.2187ZM42.3125 41.1057L38.125 42.5022V23.1853L42.3125 24.5818V41.1057ZM50.6875 38.3147L46.5 39.7091V25.9783L50.6875 27.3728V38.3147ZM54.875 36.9182V28.7693L67.0983 32.8437L54.875 36.9182Z" fill="#00BB78"/>
<path d="M54.875 60.0625C54.875 57.8413 53.9926 55.7111 52.422 54.1405C50.8514 52.5699 48.7212 51.6875 46.5 51.6875C44.2788 51.6875 42.1486 52.5699 40.578 54.1405C39.0074 55.7111 38.125 57.8413 38.125 60.0625H42.3125C42.3125 59.2343 42.5581 58.4247 43.0182 57.736C43.4783 57.0474 44.1323 56.5107 44.8975 56.1938C45.6627 55.8768 46.5046 55.7939 47.3169 55.9555C48.1292 56.117 48.8754 56.5159 49.461 57.1015C50.0466 57.6871 50.4455 58.4333 50.607 59.2456C50.7686 60.0579 50.6857 60.8998 50.3687 61.665C50.0518 62.4302 49.5151 63.0842 48.8265 63.5443C48.1378 64.0044 47.3282 64.25 46.5 64.25H29.75V68.4375H46.5C48.7203 68.4347 50.8489 67.5515 52.419 65.9815C53.989 64.4114 54.8722 62.2828 54.875 60.0625Z" fill="#00BB78"/>
<path d="M67.4375 60.0625C65.2172 60.0653 63.0886 60.9485 61.5185 62.5185C59.9485 64.0886 59.0653 66.2172 59.0625 68.4375H63.25C63.25 67.6093 63.4956 66.7997 63.9557 66.111C64.4158 65.4224 65.0698 64.8857 65.835 64.5688C66.6002 64.2518 67.4421 64.1689 68.2544 64.3305C69.0667 64.492 69.8129 64.8909 70.3985 65.4765C70.9841 66.0621 71.383 66.8083 71.5445 67.6206C71.7061 68.4329 71.6232 69.2748 71.3062 70.04C70.9893 70.8052 70.4526 71.4592 69.764 71.9193C69.0753 72.3794 68.2657 72.625 67.4375 72.625H38.125V76.8125H67.4375C69.6587 76.8125 71.7889 75.9301 73.3595 74.3595C74.9301 72.7889 75.8125 70.6587 75.8125 68.4375C75.8125 66.2163 74.9301 64.0861 73.3595 62.5155C71.7889 60.9449 69.6587 60.0625 67.4375 60.0625Z" fill="#00BB78"/>
</g>
<defs>
<filter id="filter0_d_7_27" x="0" y="0" width="94" height="94" filterUnits="userSpaceOnUse" color-interpolation-filters="sRGB">
<feFlood flood-opacity="0" result="BackgroundImageFix"/>
<feColorMatrix in="SourceAlpha" type="matrix" values="0 0 0 0 0 0 0 0 0 0 0 0 0 0 0 0 0 0 127 0" result="hardAlpha"/>
<feOffset/>
<feColorMatrix type="matrix" values="0 0 0 0 0.180392 0 0 0 0 0.615686 0 0 0 0 1 0 0 0 1 0"/>
<feBlend mode="normal" in2="BackgroundImageFix" result="effect1_dropShadow_7_27"/>
<feBlend mode="normal" in="SourceGraphic" in2="effect1_dropShadow_7_27" result="shape"/>
</filter>
</defs>
</svg>
