<svg width="94" height="94" viewBox="0 0 94 94" fill="none" xmlns="http://www.w3.org/2000/svg">
<g filter="url(#filter0_d_7_9)">
<rect width="94" height="94" fill="white"/>
<rect x="5" y="5" width="84" height="84" stroke="white" stroke-width="10"/>
<path d="M47.5 14C40.8743 14 34.3975 15.9647 28.8884 19.6458C23.3794 23.3268 19.0856 28.5588 16.5501 34.6801C14.0145 40.8014 13.3511 47.5372 14.6437 54.0355C15.9363 60.5339 19.1269 66.503 23.8119 71.1881C28.497 75.8731 34.4661 79.0637 40.9645 80.3563C47.4628 81.6489 54.1986 80.9855 60.3199 78.45C66.4412 75.9144 71.6732 71.6206 75.3542 66.1116C79.0353 60.6025 81 54.1257 81 47.5C80.9899 38.6184 77.4572 30.1034 71.1769 23.8231C64.8966 17.5428 56.3816 14.0101 47.5 14ZM59.4643 21.4322C61.9983 22.6002 64.3489 24.131 66.4419 25.9762L65.4536 28.3571H59.4643V21.4322ZM41.2259 75.5036C36.0479 74.3531 31.2907 71.788 27.4842 68.0939C23.6777 64.3998 20.9711 59.7217 19.6659 54.5804C18.3607 49.4392 18.508 44.0366 20.0915 38.9741C21.675 33.9116 24.6325 29.388 28.6347 25.9069L31.8627 30.75H39.8596L36.2703 40.3214H26.6343L23.3274 50.247L29.4698 59.4643H41.4341L44.8607 64.6017L41.2259 75.5036ZM47.5 76.2143C47.0143 76.2143 46.5381 76.1664 46.0571 76.1425L49.3999 66.1164C49.6323 65.4257 49.7029 64.6908 49.6062 63.9685C49.5096 63.2462 49.2482 62.5558 48.8424 61.9505L45.4158 56.8106C44.9795 56.1543 44.3877 55.6162 43.6929 55.2442C42.9982 54.8722 42.2222 54.6779 41.4341 54.6786H32.0302L28.6036 49.5387L30.0824 45.1071H35.5357V49.8928H40.3214V43.1474L47.3469 24.4113L42.8674 22.7315L41.6543 25.9643H34.423L32.492 23.0689C35.7653 21.0248 39.423 19.6737 43.2391 19.0991C47.0552 18.5246 50.9485 18.7388 54.6786 19.7285V28.3571C54.6798 29.626 55.1845 30.8425 56.0817 31.7397C56.9789 32.637 58.1954 33.1416 59.4643 33.1429H65.6522C66.2809 33.1446 66.9037 33.0215 67.4845 32.7808C68.0653 32.5401 68.5925 32.1866 69.0357 31.7406L69.3707 31.4056L70.0455 29.7785C71.9773 32.2323 73.4953 34.9852 74.5393 37.9286H63.2905C62.1592 37.9251 61.0635 38.3238 60.1991 39.0537C59.3347 39.7835 58.7579 40.7968 58.5718 41.9127L57.1432 50.1465C56.9702 51.1218 57.1057 52.1267 57.5307 53.0214C57.9558 53.9161 58.6492 54.656 59.5145 55.138L64.6951 58.6411L68.1839 67.3655C65.513 70.1615 62.3031 72.3871 58.7481 73.9079C55.1931 75.4288 51.3667 76.2134 47.5 76.2143ZM68.593 55.5017L62.0964 51.1108L61.8571 50.9672L63.2905 42.7143H75.7812C77.0347 49.7743 75.5417 57.0465 71.608 63.0416L68.593 55.5017Z" fill="#00BB78"/>
</g>
<defs>
<filter id="filter0_d_7_9" x="0" y="0" width="94" height="94" filterUnits="userSpaceOnUse" color-interpolation-filters="sRGB">
<feFlood flood-opacity="0" result="BackgroundImageFix"/>
<feColorMatrix in="SourceAlpha" type="matrix" values="0 0 0 0 0 0 0 0 0 0 0 0 0 0 0 0 0 0 127 0" result="hardAlpha"/>
<feOffset/>
<feColorMatrix type="matrix" values="0 0 0 0 0.180392 0 0 0 0 0.615686 0 0 0 0 1 0 0 0 1 0"/>
<feBlend mode="normal" in2="BackgroundImageFix" result="effect1_dropShadow_7_9"/>
<feBlend mode="normal" in="SourceGraphic" in2="effect1_dropShadow_7_9" result="shape"/>
</filter>
</defs>
</svg>
